<?xml version="1.0" encoding="UTF-8" standalone="no"?>
<!-- Created with Inkscape (http://www.inkscape.org/) -->

<svg
   xmlns:dc="http://purl.org/dc/elements/1.1/"
   xmlns:cc="http://creativecommons.org/ns#"
   xmlns:rdf="http://www.w3.org/1999/02/22-rdf-syntax-ns#"
   xmlns:svg="http://www.w3.org/2000/svg"
   xmlns="http://www.w3.org/2000/svg"
   xmlns:sodipodi="http://sodipodi.sourceforge.net/DTD/sodipodi-0.dtd"
   xmlns:inkscape="http://www.inkscape.org/namespaces/inkscape"
   width="210mm"
   height="297mm"
   viewBox="0 0 744.09448819 1052.3622047"
   id="svg6311"
   version="1.1"
   inkscape:version="0.91 r13725"
   sodipodi:docname="images.svg">
  <defs
     id="defs6313" />
  <sodipodi:namedview
     id="base"
     pagecolor="#ffffff"
     bordercolor="#666666"
     borderopacity="1.0"
     inkscape:pageopacity="0.0"
     inkscape:pageshadow="2"
     inkscape:zoom="0.175"
     inkscape:cx="-644.14038"
     inkscape:cy="665.09668"
     inkscape:document-units="px"
     inkscape:current-layer="layer1"
     showgrid="false"
     inkscape:window-width="1280"
     inkscape:window-height="754"
     inkscape:window-x="0"
     inkscape:window-y="0"
     inkscape:window-maximized="1" />
  <metadata
     id="metadata6316">
    <rdf:RDF>
      <cc:Work
         rdf:about="">
        <dc:format>image/svg+xml</dc:format>
        <dc:type
           rdf:resource="http://purl.org/dc/dcmitype/StillImage" />
        <dc:title></dc:title>
      </cc:Work>
    </rdf:RDF>
  </metadata>
  <g
     inkscape:label="Layer 1"
     inkscape:groupmode="layer"
     id="layer1">
    <g
       id="g7046">
      <g
         inkscape:transform-center-y="-384.22911"
         inkscape:transform-center-x="653.92579"
         id="g6236"
         style="display:inline;enable-background:new"
         transform="matrix(0.64653953,0,0,0.64653953,127.07022,272.41983)">
        <path
           style="display:inline;opacity:1;fill:#fdb3c0;fill-opacity:1;stroke:#fdb3c0;stroke-width:0;stroke-linecap:round;stroke-linejoin:round;stroke-miterlimit:4;stroke-dasharray:none;stroke-dashoffset:0;stroke-opacity:1"
           d="M 372.51014,1122.9765 C 301.70732,1111.7221 228.26969,1110.8385 157.19562,1102.2659 105.76608,1090.9477 43.875924,1061.7644 9.6568841,1020.8032 -25.150447,976.18812 -33.097241,911.54624 -43.82261,857.93484 -61.568105,802.97764 -64.32998,744.23351 -58.920594,686.63632 -53.973669,620.81917 -70.215809,557.38584 -64.93817,491.39089 -64.06361,366.88354 -63.072274,240.44126 -70.951986,116.19945 -73.154713,69.095748 -86.421861,-1.881158 -44.018293,-36.251659 4.975255,-78.373605 84.71457,-69.106947 144.42871,-72.549289 c 104.41887,1.734616 208.87346,4.97697 312.98099,13.92856 97.30807,10.525676 195.61262,17.543461 292.05494,35.081351 54.57503,17.8462575 67.18894,97.638562 73.2068,145.114238 8.97222,78.4196 -10.52925,162.70651 3.73473,241.02902 11.7822,178.25235 5.1671,357.23452 6.25738,535.63943 2.01351,65.38778 -41.30651,153.39329 -94.27294,185.63869 -73.69068,45.0514 -162.28509,32.8216 -250.85758,34.0535 -37.69695,0 -77.36501,5.6177 -115.02289,5.041 z M 83.556919,80.601035 C 125.37121,36.538547 183.27277,59.610854 236.72491,59.983945 282.27778,61.92717 342.39368,39.250932 346.57275,12.860895 313.87496,-24.171682 255.15364,-4.6642408 210.94684,-10.293679 175.49514,-10.416992 140.04337,-10.531665 104.59162,-10.651539 74.384141,-42.702357 19.163405,-50.150694 -4.7440037,-7.1420384 -7.650473,26.547086 -11.047726,91.418344 50.3929,89.897065 61.862167,88.675517 72.897184,84.833153 83.556919,80.601035 Z"
           id="path6943"
           inkscape:connector-curvature="0"
           sodipodi:nodetypes="ccccccccccccccccccccccccc" />
        <g
           transform="matrix(5.1401935,0,0,5.1401935,-142.65642,478.51579)"
           id="g5219"
           style="display:inline;fill:#fdb3c0;fill-opacity:1;stroke:#fda4b6;stroke-opacity:1">
          <path
             inkscape:connector-curvature="0"
             id="path6913"
             d="m 74.746378,-116.16091 c -2.085152,-0.2533 -3.933398,-0.54843 -4.107215,-0.65586 -0.473143,-0.29241 -11.299701,-1.20246 -19.325215,-1.6244 -3.889087,-0.20448 -7.946112,-0.51852 -9.015611,-0.69788 -1.069499,-0.17935 -3.694633,-0.58774 -5.833631,-0.90752 -2.138998,-0.31978 -5.08233,-0.90833 -6.540738,-1.3079 -1.458407,-0.39956 -3.320112,-0.90779 -4.137122,-1.1294 -0.817009,-0.22161 -1.599246,-0.5167 -1.738304,-0.65575 -0.139058,-0.13906 -0.514631,-0.25284 -0.834606,-0.25284 -0.319975,0 -1.240368,-0.31819 -2.045316,-0.7071 -0.804948,-0.38891 -1.700487,-0.70711 -1.990086,-0.70711 -0.289598,0 -0.615842,-0.14449 -0.724985,-0.32109 -0.109143,-0.17659 -1.005087,-0.52782 -1.990987,-0.7805 -1.763001,-0.45184 -1.789022,-0.4782 -1.578735,-1.59912 0.394609,-2.10345 2.612571,-5.85754 4.68984,-7.93796 3.404273,-3.40944 3.512857,-3.50347 4.04579,-3.50347 0.28345,0 0.972643,-0.47729 1.531541,-1.06066 0.558897,-0.58336 1.205578,-1.06066 1.437069,-1.06066 0.231491,0 0.629728,-0.25163 0.884971,-0.55918 0.618595,-0.74536 4.085119,-2.46857 5.632911,-2.80012 0.68059,-0.14578 1.316986,-0.37537 1.414213,-0.51019 0.09723,-0.13482 0.972272,-0.63128 1.944544,-1.10325 1.452387,-0.70503 2.556216,-0.90195 6.187184,-1.10377 2.43068,-0.13511 4.976264,-0.32952 5.656855,-0.43202 0.68059,-0.10251 2.794174,-0.34792 4.69685,-0.54536 1.90268,-0.19744 3.811868,-0.55787 4.242641,-0.80096 0.713824,-0.40282 21.715744,-0.93493 40.911537,-1.03654 4.768287,-0.0252 12.795977,0.70053 13.290947,1.20161 0.14406,0.14584 4.33221,0.27523 9.30701,0.28753 4.97479,0.0123 10.79516,0.18345 12.93416,0.38034 2.139,0.19689 4.52548,0.40937 5.3033,0.47217 0.77782,0.0628 1.65286,0.2014 1.94454,0.30801 0.29168,0.10661 2.91682,0.35385 5.83363,0.54942 7.09505,0.47572 11.29896,0.98204 13.43503,1.61812 0.97227,0.28952 2.88146,0.67775 4.24264,0.86272 2.1998,0.29894 5.33133,0.90484 8.48528,1.64176 0.58337,0.13631 1.32906,0.48129 1.65711,0.76663 0.32804,0.28534 0.72578,0.44036 0.88388,0.3445 0.15809,-0.0959 0.48194,0.0362 0.71966,0.29359 0.3481,0.37682 0.22768,0.55842 -0.61872,0.93308 -0.57801,0.25585 -1.05093,0.58545 -1.05093,0.73243 0,0.14699 -0.23865,0.26725 -0.53033,0.26725 -0.29169,0 -0.53034,0.1591 -0.53034,0.35355 0,0.19446 -0.22728,0.35356 -0.50507,0.35356 -0.27779,0 -0.71532,0.199 -0.97227,0.44222 -0.25696,0.24322 -1.34224,0.90945 -2.41174,1.4805 -1.0695,0.57106 -2.66049,1.48095 -3.53554,2.02199 -0.87504,0.54104 -2.30693,1.37135 -3.18198,1.84513 -0.87504,0.47378 -2.17532,1.26094 -2.88951,1.74924 -0.71419,0.48831 -2.46428,1.24079 -3.88909,1.67219 -1.42481,0.43139 -2.82921,0.86666 -3.12089,0.96728 -0.29168,0.10061 -0.68943,0.20679 -0.88389,0.23596 -0.79296,0.11896 -2.58509,0.65581 -4.41941,1.3239 -1.0695,0.38953 -3.37644,1.15782 -5.12653,1.70731 -4.75783,1.49385 -8.69236,2.82732 -10.03587,3.40131 -1.48029,0.63243 -6.19588,1.34313 -13.82898,2.0842 -3.2085,0.31151 -7.34507,0.7141 -9.19239,0.89466 -3.33551,0.32601 -7.5954,0.85371 -15.733125,1.94896 -7.725403,1.03976 -9.166207,1.17531 -12.197592,1.14754 -1.652862,-0.0151 -4.711236,-0.23476 -6.796385,-0.48805 z"
             style="display:inline;opacity:1;fill:#fdb3c0;fill-opacity:1;stroke:#fda4b6;stroke-width:0;stroke-linecap:round;stroke-linejoin:round;stroke-miterlimit:4;stroke-dasharray:none;stroke-dashoffset:0;stroke-opacity:1" />
        </g>
        <path
           style="display:inline;opacity:1;fill:#fc7991;fill-opacity:1;stroke:#c00000;stroke-width:0;stroke-linecap:round;stroke-linejoin:round;stroke-miterlimit:4;stroke-dasharray:none;stroke-dashoffset:0;stroke-opacity:1"
           d="M 403.78116,1136.6424 C 297.88803,1126.0585 191.09321,1126.8921 85.089212,1117.65 21.267999,1105.6325 -54.481952,1079.312 -73.883195,1009.7969 c -22.223839,-48.4138 1.434314,-101.15989 -9.627634,-152.27613 -4.401963,-238.40815 6.618048,-477.057 -4.69249,-715.36647 1.554401,-65.104323 -6.840926,-136.7131127 4.091291,-200.501457 43.036478,-27.431127 102.003953,-13.321126 151.330999,-18.853661 173.962089,-6.244353 348.936829,-13.325281 521.997639,9.827195 53.19936,4.21836 106.32655,2.350267 159.48638,2.004732 39.69746,6.5357 82.96676,26.637952 106.95114,58.8147445 6.67282,144.5835265 6.10309,289.5888565 5.63827,434.3436365 -6.16982,188.77355 3.00446,377.7615 -4.62337,566.46679 7.73726,57.81312 -28.37756,104.83772 -84.07899,116.94522 -24.03051,11.8429 -49.55728,16.1707 -76.20409,14.8729 -95.41263,2.5244 -190.76816,7.9243 -286.04745,12.0707 z m 40.12825,-22.6527 c 76.65283,-6.9057 154.65409,2.9161 230.6377,-9.9834 51.0263,-12.6765 99.4556,-43.3313 118.32562,-94.7481 38.27908,-75.59262 20.98375,-162.89547 26.24366,-244.22607 3.25288,-154.98352 9.56579,-312.64425 -6.13034,-467.15152 C 815.05575,195.04198 828.48739,89.339021 774.33981,-3.8131107 718.11945,-34.597229 656.93974,-26.649643 597.03017,-37.99918 446.89946,-49.992702 296.18072,-68.084664 145.20002,-66.546927 77.535751,-63.959829 -2.3372027,-74.619514 -52.71717,-18.223445 -83.407518,31.953943 -66.645964,92.234549 -62.446939,147.11824 c 7.555928,77.11455 1.510807,154.74859 5.58827,232.07138 -2.104861,97.04223 -5.594023,194.25094 7.002121,290.79905 4.121252,64.56674 -5.067566,130.32488 15.445046,193.13126 10.0682,52.99652 16.920231,108.09209 53.30741,150.83087 32.310382,38.2628 79.95175,65.1302 127.745782,78.6457 70.44471,11.6419 142.69157,10.088 213.44777,21.2073 27.76162,2.582 56.08012,3.3235 83.81995,0.1861 z"
           id="path6945"
           inkscape:connector-curvature="0"
           sodipodi:nodetypes="cccccccccccccccccccccccccccccccccc" />
        <g
           transform="matrix(5.1401935,0,0,5.1401935,-133.04081,-338.40489)"
           style="display:inline"
           id="g6029">
          <path
             style="display:inline;fill:none;fill-rule:evenodd;stroke:#fda4b6;stroke-width:2;stroke-linecap:butt;stroke-linejoin:miter;stroke-miterlimit:4;stroke-dasharray:none;stroke-opacity:1"
             d="m 184.45197,212.92519 c 0.60009,9.74198 -1.00648,19.60516 0.0293,29.42319 -0.58244,10.76624 -4.39723,22.02832 -11.97078,29.76607 -7.73846,6.40025 -18.21288,9.6829 -28.26906,8.93851 -12.7108,0.91148 -25.45394,-0.74941 -38.12453,1.20922 -14.426243,-0.24077 -28.676154,-3.21393 -43.100583,-3.26884 -11.987088,-0.46452 -23.021814,-6.67191 -31.982416,-14.18822 -8.620112,-10.83677 -8.537387,-20.42025 -11.120575,-31.65663 -4.752627,-15.62153 -2.339865,-31.94146 -4.357789,-47.9648 -1.983392,-15.96551 0.5089,-31.98659 -0.175977,-47.9928 0.107064,-12.83535 -1.386449,-25.56795 -0.987238,-38.395363 -0.190082,-11.703643 -4.357841,-24.007764 0.723918,-35.151201 8.840049,-11.53039 24.488081,-9.737155 37.318837,-10.153547 20.388017,0.412871 40.924289,0.844515 61.261463,2.932489 18.33173,1.65664 36.71671,3.262467 54.98558,5.587731 12.257,1.073876 12.91423,15.667576 15.15799,25.072391 2.19943,17.5789 -2.27352,35.02334 1.1859,52.52201 0.77116,13.6573 0.36962,27.59841 0.268,41.2458 0.50482,10.68764 -0.99734,21.38503 -0.84204,32.07399 z"
             id="path6853"
             inkscape:connector-curvature="0"
             sodipodi:nodetypes="ccccccccccccccccccc" />
        </g>
        <g
           transform="matrix(5.1401935,0,0,5.1401935,-142.65642,478.51579)"
           style="display:inline;stroke:#fc7991;stroke-opacity:1"
           id="g5271">
          <path
             style="display:inline;opacity:1;fill:#fc7991;fill-opacity:1;stroke:#fc7991;stroke-width:0;stroke-linecap:round;stroke-linejoin:round;stroke-miterlimit:4;stroke-dasharray:none;stroke-dashoffset:0;stroke-opacity:1"
             d="m 36.061887,-75.083553 c -8.735994,2.873119 -15.912109,-13.971186 -9.728158,-14.520076 3.638724,8.537558 18.937178,9.065516 23.940342,2.378359 9.486202,-0.379276 19.622483,0.63147 30.119086,0.606265 4.047322,-0.0097 11.427516,-0.117665 14.070407,-1.140501 1.392891,3.102164 1.304676,5.954918 -3.42318,8.271353 -11.970952,-1.427597 -24.753971,-1.421875 -36.702844,-3.048498 -5.758677,1.816893 -11.211209,7.784326 -18.275653,7.453098 z"
             id="path6941"
             inkscape:connector-curvature="0"
             sodipodi:nodetypes="cccscccc" />
        </g>
        <g
           transform="matrix(5.1401935,0,0,5.1401935,-142.65642,478.51579)"
           style="display:inline"
           id="g5263">
          <path
             sodipodi:nodetypes="ccccccccccccccccccccccc"
             inkscape:connector-curvature="0"
             id="path6925"
             d="m 40.747005,-92.639097 -0.0043,0.28009 c 0.01389,0.833538 0.269,1.327505 0.976571,1.664465 0.879807,0.55493 2.34686,0.2324 3.447149,0.53034 1.688503,-0.02565 3.340445,0.2556 5.038136,0.17678 1.279791,0.195174 2.584742,0.119501 3.862984,0.359538 0.01303,-0.04177 1.901364,0.188042 2.620426,0.170802 1.396871,0.140796 2.82701,0.01593 4.211582,0.26517 l 6.717514,0 c 1.162334,0.106569 2.364952,0.145537 3.535536,0.26517 1.045557,-0.03222 2.0783,-0.11009 3.124652,-0.17678 1.402112,-0.20026 2.890674,0.03672 4.299969,-0.17678 1.512483,0.042 2.970933,-0.14952 4.488696,-0.08839 1.11584,0.07695 1.927304,-0.285496 2.935929,-0.618723 1.632233,-0.255637 4.279331,-2.076728 5.5034,-1.709487 1.224068,0.367242 3.317424,3.73024 0.855687,4.053269 -2.013525,0.226344 -4.159428,-0.120278 -6.115312,0.184474 -5.716666,-0.547747 -11.468615,-0.552507 -17.20807,-0.499124 -5.632991,0.101798 -11.258493,-0.187595 -16.887537,-0.30318 -2.211546,-0.09155 -4.506048,0.162778 -6.664373,-0.251462 -0.778429,1.248913 -3.361252,-0.331695 -4.738592,-0.303222 -0.60929,-0.338545 -1.986416,-0.172519 -1.679641,-1.195957 -0.414269,-1.229262 1.096218,-3.101414 1.426533,-1.031763"
             style="display:inline;fill:#727a88;fill-opacity:1;fill-rule:evenodd;stroke:#727a88;stroke-width:2;stroke-linecap:butt;stroke-linejoin:miter;stroke-miterlimit:4;stroke-dasharray:none;stroke-opacity:1" />
          <g
             id="g5254">
            <path
               style="display:inline;opacity:1;fill:#727a88;fill-opacity:1;stroke:#c00000;stroke-width:0;stroke-linecap:round;stroke-linejoin:round;stroke-miterlimit:4;stroke-dasharray:none;stroke-dashoffset:0;stroke-opacity:1"
               d="m 37.60855,-83.334678 c -2.00329,0.317232 -7.518304,-1.129447 -3.925696,-2.98664 2.512487,-1.431146 3.646829,-5.082683 1.554155,-7.368366 -1.339987,-2.264093 -4.207564,-1.996776 -6.085836,-2.807937 1.820429,-1.277582 5.144819,-3.116166 7.602187,-2.864281 3.416519,1.142486 7.052132,2.112419 9.84688,4.506534 -2.889261,0.483184 -7.239479,0.417813 -8.622677,3.348702 -0.819078,3.42758 3.034731,4.376535 5.596513,4.567864 1.443605,0.222894 6.835683,-1.364012 5.485038,1.296882 -2.292568,1.489864 -5.943676,1.95928 -8.583531,2.420729 -0.955564,0.07245 -1.921341,0.04884 -2.867033,-0.113487 z"
               id="path6937"
               inkscape:connector-curvature="0"
               sodipodi:nodetypes="ccccccccccc" />
          </g>
        </g>
        <g
           transform="matrix(5.1401935,0,0,5.1401935,-142.65642,478.51579)"
           style="display:inline"
           id="g5258">
          <g
             id="g5237">
            <path
               style="display:inline;opacity:1;fill:#a2b2c5;fill-opacity:1;stroke:#c00000;stroke-width:0;stroke-linecap:round;stroke-linejoin:round;stroke-miterlimit:4;stroke-dasharray:none;stroke-dashoffset:0;stroke-opacity:1"
               d="m 70.508336,-89.580186 c -6.424635,-0.396385 -12.879676,-0.293611 -19.296138,-0.888546 -3.007628,-0.28495 -6.071819,-0.103952 -9.040809,-0.714195 -2.15315,-1.268868 1.162233,-2.733621 2.405911,-2.707034 5.081236,-0.518461 10.204582,-0.316538 15.305222,-0.382442 9.128272,0.05103 18.263939,0.04201 27.382608,0.501008 1.475639,0.192399 3.018046,0.403275 4.344772,1.119764 -2.280092,1.10893 -4.670461,1.849726 -7.110066,2.444407 -4.607352,0.399444 -9.242987,0.407952 -13.856679,0.664351 l -0.134821,-0.03735 z"
               id="path6929"
               inkscape:connector-curvature="0"
               sodipodi:nodetypes="ccccccccccc" />
          </g>
          <path
             style="display:inline;opacity:1;fill:#a2b2c5;fill-opacity:1;stroke:#c00000;stroke-width:0;stroke-linecap:round;stroke-linejoin:round;stroke-miterlimit:4;stroke-dasharray:none;stroke-dashoffset:0;stroke-opacity:1"
             d="m 30.493741,-84.967611 c -1.805403,-0.995826 -2.421995,-4.160715 -3.263734,-5.888052 -0.643459,-1.332672 -0.428837,-3.645653 1.143763,-4.706258 1.391467,-0.97236 2.447776,-1.154758 4.468373,-0.228022 1.734314,0.462107 3.054594,2.660208 3.62738,4.325128 0.336379,1.42442 -0.732495,3.585885 -1.588311,4.559117 -0.964731,0.755701 -1.983542,1.519746 -3.100124,2.019958 -0.297229,0.06768 -1.055313,0.112803 -1.287347,-0.08187 z"
             id="path6939"
             inkscape:connector-curvature="0"
             sodipodi:nodetypes="cccccccc" />
        </g>
        <g
           transform="matrix(5.1401935,0,0,5.1401935,-142.65642,478.51579)"
           style="display:inline"
           id="g5285">
          <path
             style="display:inline;opacity:1;fill:#4a525a;fill-opacity:1;stroke:#c00000;stroke-width:0;stroke-linecap:round;stroke-linejoin:round;stroke-miterlimit:4;stroke-dasharray:none;stroke-dashoffset:0;stroke-opacity:1"
             d="m 168.61189,134.10473 c -1.00513,-0.50127 -0.39067,-1.75585 1.1674,-2.66475 0.67252,-0.28128 2.02331,-0.9982 2.43542,-1.63273 0.56282,-0.6773 0.82001,-1.60755 0.58088,-2.4668 -0.21005,-0.69507 -0.37667,-1.26349 0.70531,-1.40108 0.70863,-0.25139 1.79155,-0.40602 2.44278,-0.55669 0.88652,-0.23266 -0.0863,1.22317 0.21561,1.71258 0.1228,0.61269 1.43417,2.41082 1.71668,2.95751 -0.0525,0.7201 -1.68085,0.59276 -2.16585,0.87598 -1.45327,0.48698 -2.64828,1.50913 -4.10667,1.98919 -1.00209,0.37588 -2.01565,0.79169 -2.99156,1.18679 z"
             id="path6961"
             inkscape:connector-curvature="0"
             sodipodi:nodetypes="ccccccccccc" />
        </g>
        <path
           style="display:inline;opacity:1;fill:#616d7a;fill-opacity:1;stroke:#c00000;stroke-width:0;stroke-linecap:round;stroke-linejoin:round;stroke-miterlimit:4;stroke-dasharray:none;stroke-dashoffset:0;stroke-opacity:1"
           d="m 771.24829,1177.2968 c -3.69025,-1.1742 -7.65503,0.3506 -11.34523,-0.9927 -3.33676,-0.5713 -6.65249,-1.0502 -10.02975,-1.2469 -5.08663,0.036 -9.94777,-1.785 -14.9612,-2.4381 -4.58639,-0.6495 -9.85863,-1.4435 -12.78757,-5.4157 8.91407,-5.0782 19.38696,-7.2553 28.28428,-12.5544 4.69531,-3.0539 9.86099,-5.3589 15.36152,-6.4675 4.04379,-2.6783 7.11464,-0.2179 9.3201,3.158 3.08066,3.4525 6.68939,6.3478 10.80683,8.4686 3.22615,2.1593 7.09718,3.1538 10.332,5.2455 5.32323,1.2228 1.80369,6.0492 -1.20156,7.8282 -3.12977,2.319 -7.01653,3.5618 -10.84356,4.0797 -3.5037,0.3902 -7.07259,1.2655 -10.6786,0.81 -0.76753,-0.01 -1.58877,-0.036 -2.25726,-0.4745 z"
           id="path6955"
           inkscape:connector-curvature="0" />
        <path
           style="display:inline;opacity:1;fill:#616d7a;fill-opacity:1;stroke:#c00000;stroke-width:0;stroke-linecap:round;stroke-linejoin:round;stroke-miterlimit:4;stroke-dasharray:none;stroke-dashoffset:0;stroke-opacity:1"
           d="m 27.959193,1163.6662 c -6.008732,-0.9966 -12.192437,-0.2549 -18.1453423,-1.7146 -6.5067625,-1.0147 -12.8374767,-2.9499 -18.9655701,-5.3326 -1.9241246,-2.4926 -5.6679876,-2.9786 -7.2312226,-5.747 0.855378,-2.4879 4.345931,-2.5658 6.189775,-4.3065 6.0285184,-3.4286 12.9215142,-4.8913 19.1221294,-7.9034 5.7316756,-3.4462 12.6233916,-1.3197 18.4339246,0.7397 7.977168,2.211 15.830348,5.0938 24.094655,6.0654 4.205606,2.8422 8.036485,6.3056 12.73483,8.3534 3.636682,1.4013 2.45752,6.5606 -1.318923,6.5836 -4.019118,0.2185 -7.929929,1.4792 -11.96133,1.8326 -3.753884,0.2884 -7.539591,1.3174 -11.283505,0.9948 -3.910248,-0.3655 -7.827375,1.926 -11.669421,0.4348 z"
           id="path6957"
           inkscape:connector-curvature="0" />
        <g
           transform="matrix(5.1401935,0,0,5.1401935,-142.65642,478.51579)"
           style="display:inline"
           id="g5281">
          <path
             style="display:inline;opacity:1;fill:#4a525a;fill-opacity:1;stroke:#c00000;stroke-width:0;stroke-linecap:round;stroke-linejoin:round;stroke-miterlimit:4;stroke-dasharray:none;stroke-dashoffset:0;stroke-opacity:1"
             d="m 37.55499,129.9014 c -1.449895,-0.27486 -4.289372,-1.16601 -5.734,-1.46234 -0.366551,-0.0934 0.101591,-1.64409 0.149407,-1.96232 0.05848,-0.33753 0.01768,-0.67462 0.01987,-1.01289 0.01348,-0.91358 -0.02748,-1.84383 -0.318922,-2.71751 -0.133993,-0.32337 0.261417,-0.47693 0.446539,-0.21675 0.327219,0.35906 0.849987,0.18002 1.263889,0.30785 0.299501,0.0707 0.388302,0.46821 0.732973,0.42974 0.232635,0.006 0.69566,-0.0239 0.604421,0.34141 -0.11333,0.2934 -0.01432,0.61026 0.05548,0.90459 0.126483,0.43043 0.305534,0.8505 0.532349,1.23546 0.481244,0.51607 1.295652,2.79727 1.850269,3.2641 0.202914,0.23382 0.376152,0.50908 0.474895,0.80443 0.02238,0.0509 -0.01749,0.11657 -0.07716,0.0842 z"
             id="path6959"
             inkscape:connector-curvature="0"
             sodipodi:nodetypes="ccccccccccccccc" />
        </g>
        <path
           style="display:inline;fill:none;fill-opacity:1;fill-rule:evenodd;stroke:#fda4b6;stroke-width:15.42057991;stroke-linecap:butt;stroke-linejoin:miter;stroke-miterlimit:4;stroke-dasharray:none;stroke-opacity:1"
           d="m -71.780402,-168.95064 c 30.200342,10.95542 60.505479,20.56146 90.866648,30.89466 39.408322,4.22919 78.562771,12.41397 118.373054,11.45217 41.7064,2.33303 83.04368,8.01894 124.40764,13.54675 39.92712,2.88114 78.68515,-7.51543 118.24645,-10.961 50.93094,-7.57334 102.6417,-8.7772 153.278,-17.67255 39.22857,-14.33514 78.64722,-27.25551 118.85742,-38.70389 35.05935,-10.24719 63.88812,-34.21488 96.00812,-50.86813 5.07918,-6.02699 14.05205,-6.48723 19.57041,-12.19862"
           id="path6847"
           inkscape:connector-curvature="0" />
        <path
           style="display:inline;opacity:1;fill:#fc7991;fill-opacity:1;stroke:#c00000;stroke-width:0;stroke-linecap:round;stroke-linejoin:round;stroke-miterlimit:4;stroke-dasharray:none;stroke-dashoffset:0;stroke-opacity:1"
           d="M 849.76723,-25.627563 C 816.90858,-54.512246 774.1911,-73.972397 729.72154,-70.461075 656.64778,-70.685396 583.58476,-73.188609 511.05977,-82.659009 399.7057,-93.585238 287.54108,-91.147893 175.81845,-89.413758 c -71.58901,2.027201 -142.916651,7.126376 -214.317948,11.38307 -24.251633,6.259022 -47.419923,45.151963 -42.113859,-11.375925 4.488672,-20.462307 -20.390633,-98.208497 27.967173,-69.838117 77.568604,35.74917 164.255964,33.66266 247.529264,40.97133 45.41042,6.65718 91.59099,13.43278 137.29009,4.18939 67.867,-11.4046 137.01047,-12.95022 204.68199,-25.30854 43.32443,-14.9453 87.44225,-29.15058 131.60196,-42.46079 32.19236,-15.07263 62.2645,-35.34201 93.37526,-52.87318 14.80309,-16.7196 25.00514,15.55393 38.92761,19.85644 24.49274,24.22711 33.36618,58.98077 39.65802,91.50878 9.37941,28.320571 9.24369,58.539879 13.4305,87.223948 -0.77844,4.185022 8.31866,25.303194 -4.08128,10.509789 z"
           id="path6917"
           inkscape:connector-curvature="0"
           sodipodi:nodetypes="cccccccccccccccc" />
        <g
           transform="matrix(5.1401935,0,0,5.1401935,-142.65642,478.51579)"
           style="display:inline"
           id="g6998">
          <path
             style="display:inline;fill:none;fill-rule:evenodd;stroke:#000000;stroke-width:2;stroke-linecap:butt;stroke-linejoin:miter;stroke-miterlimit:4;stroke-dasharray:none;stroke-opacity:1"
             d="m 172.00372,125.94531 c 0.33806,1.24569 0.73672,2.86901 -0.50655,3.76757 -1.33214,1.05549 -3.25704,1.61591 -4.02885,3.12328 -1.46715,0.82948 0.97021,2.19201 1.84116,2.46145 1.82762,0.36167 3.65039,0.76288 5.51596,0.85149 1.49821,0.27257 3.0618,0.38201 4.59958,0.38939 1.5896,-0.18658 3.60246,-0.50919 4.32188,-2.148 0.0763,-1.7568 -2.4196,-1.64978 -3.4433,-2.68773 -1.41947,-0.92755 -2.3033,-2.45594 -3.25579,-3.81325 -0.55454,-0.95667 -0.48406,-1.97993 -0.27092,-3.00487"
             id="path6841"
             inkscape:connector-curvature="0" />
          <path
             style="display:inline;fill:none;fill-rule:evenodd;stroke:#000000;stroke-width:2;stroke-linecap:butt;stroke-linejoin:miter;stroke-miterlimit:4;stroke-dasharray:none;stroke-opacity:1"
             d="m 31.112698,121.52589 c -0.15797,1.17741 0.289817,2.02085 0.355659,3.11509 -0.0908,0.9442 0.2302,2.13994 -0.294892,2.76827 -1.055972,0.14852 -1.983316,0.56487 -2.918814,0.93059 -1.125864,0.50563 -2.21775,0.64536 -3.196647,1.4506 -0.958414,0.40488 -2.252203,1.12786 -0.661221,1.76544 0.325573,0.49045 0.763132,0.3161 0.799553,0.36565 0.793823,0.84159 2.062149,0.89007 3.088546,1.32015 1.472132,0.28041 2.957127,0.5493 4.459893,0.48637 1.14105,0.47996 2.336886,-0.19578 3.5268,0.003 1.445884,-0.26498 3.063774,-0.19438 4.375343,-0.85233 1.697757,-0.18493 0.490562,-1.63494 -0.358439,-2.08653 -1.14843,-0.60363 -2.165833,-1.33706 -2.90554,-2.37063 -0.704876,-1.0424 -1.074868,-1.90485 -1.649498,-2.97072 -0.177469,-0.67691 -0.816036,-1.44779 -0.378104,-2.1574"
             id="path6839"
             inkscape:connector-curvature="0" />
          <path
             style="display:inline;fill:none;fill-rule:evenodd;stroke:#000000;stroke-width:2;stroke-linecap:butt;stroke-linejoin:miter;stroke-miterlimit:4;stroke-dasharray:none;stroke-opacity:1"
             d="m 48.562734,-94.328261 c -3.419456,-2.973715 -8.132775,-5.351244 -12.597275,-5.396249 -3.069767,-0.03095 -6.270049,2.08526 -8.602279,4.142128 -2.145837,2.320226 -0.73182,5.499477 0.582211,7.820453 1.126941,2.150269 3.543553,3.185366 5.573978,4.276092 3.218111,0.829888 6.722693,1.4645 9.969054,0.405326 2.374195,-0.763871 6.035522,-0.868315 6.487607,-4.324048"
             id="path6835"
             inkscape:connector-curvature="0"
             sodipodi:nodetypes="csccccc" />
          <path
             style="display:inline;fill:none;fill-rule:evenodd;stroke:#000000;stroke-width:2;stroke-linecap:butt;stroke-linejoin:miter;stroke-miterlimit:4;stroke-dasharray:none;stroke-opacity:1"
             d="m 38.532643,-89.455534 c -1.27899,-2.346248 2.203236,-3.951927 4.070311,-4.203968 4.058022,-0.897435 8.252078,-0.637841 12.375504,-0.833784 9.562713,-0.0061 19.135168,-0.136428 28.684289,0.446388 3.0879,0.06827 6.548972,-0.38437 9.182838,1.578373 1.677159,1.190471 2.183075,4.274705 -0.0019,5.202696 -2.370769,0.827273 -4.920263,-0.01399 -7.35602,0.303824 -5.452573,-0.37656 -10.917838,-0.468248 -16.378293,-0.249212 -7.384124,0.0911 -14.761052,-0.572076 -22.140969,-0.358001 -0.521539,-0.04259 -1.096468,-0.06542 -1.536793,-0.03172 -2.341315,0.152721 -5.199567,-0.07352 -6.898967,-1.854596 z"
             id="path6833"
             inkscape:connector-curvature="0"
             sodipodi:nodetypes="ccccccccccc" />
          <g
             id="g6979">
            <path
               style="display:inline;fill:none;fill-rule:evenodd;stroke:#000000;stroke-width:2;stroke-linecap:butt;stroke-linejoin:miter;stroke-miterlimit:4;stroke-dasharray:none;stroke-opacity:1"
               d="m 10.938709,-103.10552 c 1.017422,-2.38647 3.012141,-0.45492 4.264087,-3.05698 1.71454,-1.28097 3.716194,-1.44264 6.363961,-1.41421 3.323329,-0.75279 6.961949,-0.0317 10.29129,-0.70711 2.999107,-0.25381 5.92511,-0.31509 9.173268,-0.7071 4.302647,0.2192 8.181321,-0.58514 12.489095,-0.35356 3.74395,-0.0112 7.398901,-0.57188 11.17986,-0.35355 6.84297,-0.75556 13.851556,-0.16578 20.764424,-0.35355 8.668951,0.10815 17.418976,-0.28756 26.000226,0.35355 4.84573,0.23017 9.61367,0.88791 14.40009,1.06066 6.43429,0.82148 13.22218,1.14954 19.44543,2.12132 8.20035,0.70243 16.68425,0.2055 25.01643,0.35355 3.60074,-0.0418 6.56954,-0.0556 9.63181,1.41422 2.46328,0.69349 4.9249,1.5883 6.71751,3.18198 1.9201,0.40934 3.79745,2.477848 5.3033,3.181979 0.38119,0.901477 1.80105,1.852554 2.87262,3.005204"
               id="path6843"
               inkscape:connector-curvature="0"
               sodipodi:nodetypes="cccccccccccccccc" />
            <path
               style="display:inline;fill:none;fill-rule:evenodd;stroke:#000000;stroke-width:2;stroke-linecap:butt;stroke-linejoin:miter;stroke-miterlimit:4;stroke-dasharray:none;stroke-opacity:1"
               d="m 195.08691,-94.169247 c 0.6564,7.978432 0.0707,33.539733 0.92461,50.342112 0.51312,21.885674 -0.30735,43.65927673 -0.68375,65.526554 0.68207,18.506348 0.10775,36.900295 0.40075,55.409279 -0.64712,14.491041 1.45929,35.661172 -8.38058,42.305902 -13.49759,9.38358 -30.06834,6.71842 -45.51732,8.02398 -15.93593,0.10165 -31.6696,2.69623 -47.568508,0.35779 C 76.399438,125.64411 58.182697,127.61989 40.5,124.22185 22.981923,121.1958 6.8487347,106.34451 12.121895,86.685058 10.43963,67.261137 10.297397,47.587237 11.55069,28.074036 11.099372,11.81961 11.229879,-4.5616097 11.5,-20.778152 11.226373,-50.894367 8.7041017,-81.06466 11.75,-111.15315 c 0.483584,-5.6972 -0.229156,-12.40721 2.840492,-17.90999 1.810121,-6.1749 7.456599,-10.05085 12.720025,-13.16472 5.858965,-3.67203 12.953673,-5.38399 20.298805,-5.94226 7.722893,-1.04242 15.339691,-2.44643 23.133361,-2.1284 9.894532,0.23892 20.939844,-0.70165 29.655537,-0.48315 8.71569,0.2185 12.30963,2.06122 22.60117,1.50338 10.36837,-0.562 20.50486,1.89442 30.81251,2.76424 6.89397,0.58175 13.81345,1.69999 20.2964,4.09002 5.56783,2.05266 9.82466,6.39091 12.88995,11.26102 3.32108,5.27652 4.84414,11.86935 5.62781,17.69616 1.02312,5.76753 1.80445,11.31917 2.46085,19.297603 z"
               id="path6827"
               inkscape:connector-curvature="0"
               sodipodi:nodetypes="zcccccccccccccccssssscz" />
          </g>
        </g>
      </g>
      <text
         inkscape:transform-center-y="-805.32842"
         inkscape:transform-center-x="707.98754"
         sodipodi:linespacing="125%"
         id="text5600"
         y="159.03758"
         x="144.31296"
         style="font-style:normal;font-variant:normal;font-weight:normal;font-stretch:normal;font-size:62.84991455px;line-height:125%;font-family:'Automatica BRK';-inkscape-font-specification:'Automatica BRK, Normal';text-align:start;letter-spacing:0px;word-spacing:0px;writing-mode:lr-tb;text-anchor:start;display:inline;fill:#000000;fill-opacity:1;stroke:none;stroke-width:1px;stroke-linecap:butt;stroke-linejoin:miter;stroke-opacity:1;enable-background:new"
         xml:space="preserve"><tspan
           y="159.03758"
           x="144.31296"
           id="tspan5602"
           sodipodi:role="line">Goldibox</tspan></text>
    </g>
  </g>
</svg>
